<svg xmlns:mydata="http://www.w3.org/2000/svg" mydata:contrastcolor="002d2b" mydata:template="Contrast" mydata:presentation="2.5" mydata:layouttype="undefined" mydata:specialfontid="undefined" mydata:id1="053" mydata:id2="546" mydata:companyname="Verve" mydata:companytagline="" version="1.1" xmlns="http://www.w3.org/2000/svg" xmlns:xlink="http://www.w3.org/1999/xlink" viewBox="140.95117039961752 115 268.09765920076495 240" class="watermark-logo">
   <defs>
      <linearGradient x1="140.95117" y1="235" x2="409.04883" y2="235" gradientUnits="userSpaceOnUse" id="color-1912861256">
         <stop offset="0" stop-color="#00968f"></stop>
         <stop offset="1" stop-color="#00fff4"></stop>
      </linearGradient>
   </defs>
   <g fill="url(#color-1912861256)" fill-rule="none" stroke="none" stroke-width="1" stroke-linecap="butt" stroke-linejoin="miter" stroke-miterlimit="10" stroke-dasharray="" stroke-dashoffset="0" font-family="none" font-weight="none" font-size="none" text-anchor="none" style="mix-blend-mode: normal">
      <g data-paper-data="{&quot;isGlobalGroup&quot;:true,&quot;bounds&quot;:{&quot;x&quot;:140.95117039961752,&quot;y&quot;:115,&quot;width&quot;:268.09765920076495,&quot;height&quot;:240}}">
         <g data-paper-data="{&quot;isPrimaryText&quot;:true}" fill-rule="nonzero">
            <path d="M159.122,304.537l-7.99517,-29.80017h-10.17567l21.70117,80.26316h9.0335l21.70117,-80.26316h-10.17567l-7.99517,29.69633l-7.99517,35.30333z" data-paper-data="{&quot;glyphName&quot;:&quot;V&quot;,&quot;glyphIndex&quot;:0,&quot;firstGlyphOfWord&quot;:true,&quot;word&quot;:1}" style="fill: rgb(255, 255, 255);"></path>
            <path d="M201.58984,274.73684v80.15933h42.987v-9.24117h-33.12283v-28.86567h27.61967v-9.24117h-27.61967v-24.08933h30.527v-8.722z" data-paper-data="{&quot;glyphName&quot;:&quot;E&quot;,&quot;glyphIndex&quot;:1,&quot;word&quot;:1}" style="fill: rgb(255, 255, 255);"></path>
            <path d="M299.92,302.14883v-5.607c0,-16.09417 -8.722,-21.90883 -22.7395,-21.90883l-21.4935,0.10383v80.26316h9.86417v-29.69633h9.0335l16.09417,29.5925h11.62933l-17.34017,-30.2155c11.11017,-2.1805 14.952,-9.76033 14.952,-22.53183zM277.1805,284.08184c8.82583,0.51917 12.87533,1.45367 12.87533,12.46v5.607c0,11.00633 -4.0495,13.706 -12.87533,13.706h-11.62933v-31.773z" data-paper-data="{&quot;glyphName&quot;:&quot;R&quot;,&quot;glyphIndex&quot;:2,&quot;word&quot;:1}" style="fill: rgb(255, 255, 255);"></path>
            <path d="M323.594,304.537l-7.99517,-29.80017h-10.17567l21.70117,80.26316h9.0335l21.70117,-80.26316h-10.17567l-7.99517,29.69633l-7.99517,35.30333z" data-paper-data="{&quot;glyphName&quot;:&quot;V&quot;,&quot;glyphIndex&quot;:3,&quot;word&quot;:1}" style="fill: rgb(255, 255, 255);"></path>
            <path d="M366.06183,274.73684v80.15933h42.987v-9.24117h-33.12283v-28.86567h27.61967v-9.24117h-27.61967v-24.08933h30.527v-8.722z" data-paper-data="{&quot;glyphName&quot;:&quot;E&quot;,&quot;glyphIndex&quot;:4,&quot;lastGlyphOfWord&quot;:true,&quot;word&quot;:1}" style="fill: rgb(255, 255, 255);"></path>
         </g>
         <g data-paper-data="{&quot;isIcon&quot;:&quot;true&quot;,&quot;iconType&quot;:&quot;icon&quot;,&quot;rawIconId&quot;:&quot;WnAKmuRI2XvgY9f2jQtEYfKJiru-PTko5lhLlj3TXH&quot;,&quot;source&quot;:&quot;ai&quot;,&quot;selectedEffects&quot;:{&quot;container&quot;:&quot;&quot;,&quot;transformation&quot;:&quot;&quot;,&quot;pattern&quot;:&quot;&quot;},&quot;isDetailed&quot;:false,&quot;fillRule&quot;:&quot;evenodd&quot;,&quot;bounds&quot;:{&quot;x&quot;:208.89403691188116,&quot;y&quot;:115,&quot;width&quot;:132.2119261762377,&quot;height&quot;:128.32865441194863},&quot;iconStyle&quot;:&quot;standalone&quot;,&quot;suitableAsStandaloneIcon&quot;:true}" fill-rule="evenodd">
            <path d="M234.02612,122.26799c2.41601,-3.89129 6.47224,-6.24223 12.22216,-7.08347c1.6826,-0.24628 3.34429,-0.24606 5.87852,0.00087c7.91309,0.77063 15.88453,3.72222 30.78058,11.39694c17.51523,9.02431 26.97535,13.49721 35.92393,16.98597c4.52567,1.76446 5.93353,2.24063 8.25007,2.79065c2.14819,0.51052 2.60757,0.70987 3.13564,1.36162c0.91877,1.13413 0.31013,2.43559 -2.02372,4.32736c-1.52508,1.23639 -2.10532,1.74329 -9.53965,8.33426c-22.99428,20.38594 -39.40275,32.49649 -54.4966,40.22262c-1.74897,0.89527 -3.31434,1.71772 -3.47857,1.82747c-0.33105,0.22078 0.79508,1.7988 3.46721,4.85827c11.47145,13.13391 26.98284,23.29305 40.82584,26.7383c8.16434,2.03199 14.60399,1.73063 19.85115,-0.9291c1.6591,-0.84078 4.48926,-3.04526 5.90564,-4.59953c1.55504,-1.70636 3.42976,-4.47042 4.86162,-7.1681c0.60632,-1.14239 1.24646,-2.16781 1.42257,-2.27884c0.5397,-0.34034 1.86878,0.05552 2.58252,0.769c1.06157,1.06183 1.38641,1.89228 1.49126,3.81297c0.11801,2.16729 -0.28354,3.89044 -1.50262,6.44688c-2.59905,5.45193 -7.50483,9.68142 -13.59381,11.72089c-3.57643,1.19817 -5.88498,1.52947 -10.62575,1.5256c-3.04707,-0.00258 -5.08886,-0.11672 -6.68858,-0.37417c-20.17367,-3.24668 -40.70886,-15.5868 -55.78979,-33.52578c-1.29294,-1.53799 -2.44876,-2.79608 -2.56832,-2.79608c-0.11982,0 -0.51852,0.15571 -0.88649,0.34577c-2.08905,1.08042 -11.74413,4.11484 -15.64603,4.9174c-6.09311,1.25317 -14.50994,2.11152 -17.27183,1.76136c-4.81985,-0.61096 -7.61485,-3.23945 -7.61902,-7.16501c-0.00307,-2.78962 1.61254,-7.15054 7.01614,-18.93883c6.08872,-13.28316 8.36751,-18.76504 10.48399,-25.21967c2.99744,-9.1425 4.03277,-15.03677 4.54504,-25.87784c0.40309,-8.53415 0.84915,-10.58333 3.08692,-14.18778zM243.14931,126.25031c1.60513,-1.7564 3.37941,-2.69653 5.98543,-3.17198c1.48997,-0.27194 7.04493,-0.08423 9.26283,0.31295c4.42884,0.79319 10.55035,2.76736 16.72455,5.39396c1.74897,0.74387 6.78206,3.08513 11.18455,5.20251c20.44739,9.83439 24.80083,11.80079 33.42301,15.0986c3.1798,1.21599 3.56636,1.42851 3.32131,1.8254c-0.15726,0.25409 -2.52674,2.18976 -7.22853,5.9046c-1.5788,1.24749 -4.20289,3.32673 -5.83127,4.62044c-4.66124,3.70374 -7.76719,6.11712 -14.03537,10.90593c-11.3085,8.63947 -25.48384,18.0118 -35.92677,23.75372c-2.4782,1.36266 -2.96625,1.56046 -3.21414,1.30146c-0.54847,-0.57223 -4.0774,-6.65785 -5.58156,-9.62539c-6.84532,-13.50343 -11.23749,-30.53113 -11.57138,-44.8601c-0.21588,-9.26436 0.69231,-13.60393 3.48735,-16.6621zM225.06804,196.43498c3.20118,-9.00848 6.21636,-18.04614 7.73524,-23.18588c0.5248,-1.77608 0.99257,-3.19116 1.03928,-3.14442c0.04692,0.04674 0.51338,1.79622 1.03652,3.88734c2.14457,8.57053 5.6048,17.00782 9.82499,23.95772c2.833,4.66538 2.83868,4.67622 2.52029,4.87867c-0.50716,0.32227 -3.95241,1.83521 -6.66095,2.92519c-6.67438,2.68581 -12.14552,3.93666 -17.25835,3.94544c-1.87767,0.00284 -2.38996,-0.06249 -2.48778,-0.31762c-0.15328,-0.39922 0.51165,-2.42423 4.25074,-12.94644z" data-paper-data="{&quot;isPathIcon&quot;:true}" style="fill: rgb(255, 255, 255);"></path>
         </g>
      </g>
   </g>
</svg>